<?xml version="1.0" standalone="no"?><?xml-stylesheet type="text/css" href="https://wps.processon.com/themes/default/wps/mind/icons/icons.css" ?><!DOCTYPE svg PUBLIC "-//W3C//DTD SVG 1.1//EN" "http://www.w3.org/Graphics/SVG/1.1/DTD/svg11.dtd"><svg id="SvgjsSvg1006" width="2190.916666666666" height="1230" xmlns="http://www.w3.org/2000/svg" version="1.1" xmlns:xlink="http://www.w3.org/1999/xlink" xmlns:svgjs="http://svgjs.com/svgjs"><defs id="SvgjsDefs1007"><pattern patternUnits="userSpaceOnUse" id="pattern_mark_0" width="300" height="300"><text x="150" y="100" fill="rgba(229,229,229,0.8)" font-size="18" transform="rotate(-45, 150, 150)" style="dominant-baseline: middle; text-anchor: middle;"></text></pattern><pattern patternUnits="userSpaceOnUse" id="pattern_mark_1" width="300" height="300"><text x="150" y="200" fill="rgba(229,229,229,0.8)" font-size="18" transform="rotate(-45, 150, 150)" style="dominant-baseline: middle; text-anchor: middle;"></text></pattern><marker id="SvgjsMarker1093" markerWidth="13" markerHeight="9" refX="9.5" refY="4.5" viewBox="0 0 13 9" orient="auto" markerUnits="userSpaceOnUse" stroke-dasharray="0,0"><path id="SvgjsPath1094" d="M0,0 L13,4.5 L0,9 L0,0" fill="#323232" stroke="#323232" stroke-width="1"></path></marker><marker id="SvgjsMarker1103" markerWidth="13" markerHeight="9" refX="9.5" refY="4.5" viewBox="0 0 13 9" orient="auto" markerUnits="userSpaceOnUse" stroke-dasharray="0,0"><path id="SvgjsPath1104" d="M0,0 L13,4.5 L0,9 L0,0" fill="#323232" stroke="#323232" stroke-width="1"></path></marker><marker id="SvgjsMarker1115" markerWidth="13" markerHeight="9" refX="9.5" refY="4.5" viewBox="0 0 13 9" orient="auto" markerUnits="userSpaceOnUse" stroke-dasharray="0,0"><path id="SvgjsPath1116" d="M0,0 L13,4.5 L0,9 L0,0" fill="#323232" stroke="#323232" stroke-width="1"></path></marker><marker id="SvgjsMarker1135" markerWidth="13" markerHeight="9" refX="9.5" refY="4.5" viewBox="0 0 13 9" orient="auto" markerUnits="userSpaceOnUse" stroke-dasharray="0,0"><path id="SvgjsPath1136" d="M0,0 L13,4.5 L0,9 L0,0" fill="#323232" stroke="#323232" stroke-width="1"></path></marker><marker id="SvgjsMarker1147" markerWidth="13" markerHeight="9" refX="9.5" refY="4.5" viewBox="0 0 13 9" orient="auto" markerUnits="userSpaceOnUse" stroke-dasharray="0,0"><path id="SvgjsPath1148" d="M0,0 L13,4.5 L0,9 L0,0" fill="#323232" stroke="#323232" stroke-width="1"></path></marker><marker id="SvgjsMarker1173" markerWidth="13" markerHeight="9" refX="9.5" refY="4.5" viewBox="0 0 13 9" orient="auto" markerUnits="userSpaceOnUse" stroke-dasharray="0,0"><path id="SvgjsPath1174" d="M0,0 L13,4.5 L0,9 L0,0" fill="#323232" stroke="#323232" stroke-width="1"></path></marker><marker id="SvgjsMarker1177" markerWidth="13" markerHeight="9" refX="9.5" refY="4.5" viewBox="0 0 13 9" orient="auto" markerUnits="userSpaceOnUse" stroke-dasharray="0,0"><path id="SvgjsPath1178" d="M0,0 L13,4.5 L0,9 L0,0" fill="#323232" stroke="#323232" stroke-width="1"></path></marker><marker id="SvgjsMarker1189" markerWidth="13" markerHeight="9" refX="9.5" refY="4.5" viewBox="0 0 13 9" orient="auto" markerUnits="userSpaceOnUse" stroke-dasharray="0,0"><path id="SvgjsPath1190" d="M0,0 L13,4.5 L0,9 L0,0" fill="#323232" stroke="#323232" stroke-width="1"></path></marker><marker id="SvgjsMarker1205" markerWidth="13" markerHeight="9" refX="9.5" refY="4.5" viewBox="0 0 13 9" orient="auto" markerUnits="userSpaceOnUse" stroke-dasharray="0,0"><path id="SvgjsPath1206" d="M0,0 L13,4.5 L0,9 L0,0" fill="#323232" stroke="#323232" stroke-width="1"></path></marker><marker id="SvgjsMarker1221" markerWidth="13" markerHeight="9" refX="9.5" refY="4.5" viewBox="0 0 13 9" orient="auto" markerUnits="userSpaceOnUse" stroke-dasharray="0,0"><path id="SvgjsPath1222" d="M0,0 L13,4.5 L0,9 L0,0" fill="#323232" stroke="#323232" stroke-width="1"></path></marker><marker id="SvgjsMarker1231" markerWidth="13" markerHeight="9" refX="9.5" refY="4.5" viewBox="0 0 13 9" orient="auto" markerUnits="userSpaceOnUse" stroke-dasharray="0,0"><path id="SvgjsPath1232" d="M0,0 L13,4.5 L0,9 L0,0" fill="#323232" stroke="#323232" stroke-width="1"></path></marker><marker id="SvgjsMarker1243" markerWidth="13" markerHeight="9" refX="9.5" refY="4.5" viewBox="0 0 13 9" orient="auto" markerUnits="userSpaceOnUse" stroke-dasharray="0,0"><path id="SvgjsPath1244" d="M0,0 L13,4.5 L0,9 L0,0" fill="#323232" stroke="#323232" stroke-width="1"></path></marker><marker id="SvgjsMarker1247" markerWidth="13" markerHeight="9" refX="9.5" refY="4.5" viewBox="0 0 13 9" orient="auto" markerUnits="userSpaceOnUse" stroke-dasharray="0,0"><path id="SvgjsPath1248" d="M0,0 L13,4.5 L0,9 L0,0" fill="#323232" stroke="#323232" stroke-width="1"></path></marker><marker id="SvgjsMarker1259" markerWidth="13" markerHeight="9" refX="9.5" refY="4.5" viewBox="0 0 13 9" orient="auto" markerUnits="userSpaceOnUse" stroke-dasharray="0,0"><path id="SvgjsPath1260" d="M0,0 L13,4.5 L0,9 L0,0" fill="#323232" stroke="#323232" stroke-width="1"></path></marker><marker id="SvgjsMarker1281" markerWidth="13" markerHeight="9" refX="9.5" refY="4.5" viewBox="0 0 13 9" orient="auto" markerUnits="userSpaceOnUse" stroke-dasharray="0,0"><path id="SvgjsPath1282" d="M0,0 L13,4.5 L0,9 L0,0" fill="#323232" stroke="#323232" stroke-width="1"></path></marker><marker id="SvgjsMarker1285" markerWidth="13" markerHeight="9" refX="9.5" refY="4.5" viewBox="0 0 13 9" orient="auto" markerUnits="userSpaceOnUse" stroke-dasharray="0,0"><path id="SvgjsPath1286" d="M0,0 L13,4.5 L0,9 L0,0" fill="#323232" stroke="#323232" stroke-width="1"></path></marker><marker id="SvgjsMarker1289" markerWidth="13" markerHeight="9" refX="9.5" refY="4.5" viewBox="0 0 13 9" orient="auto" markerUnits="userSpaceOnUse" stroke-dasharray="0,0"><path id="SvgjsPath1290" d="M0,0 L13,4.5 L0,9 L0,0" fill="#323232" stroke="#323232" stroke-width="1"></path></marker><marker id="SvgjsMarker1309" markerWidth="13" markerHeight="9" refX="9.5" refY="4.5" viewBox="0 0 13 9" orient="auto" markerUnits="userSpaceOnUse" stroke-dasharray="0,0"><path id="SvgjsPath1310" d="M0,0 L13,4.5 L0,9 L0,0" fill="#323232" stroke="#323232" stroke-width="1"></path></marker><pattern patternUnits="userSpaceOnUse" id="wpspattern_mark_0" width="300" height="300"><text x="150" y="100" fill="#0000004d" font-size="18" transform="rotate(-45, 150, 150)" style="dominant-baseline: middle; text-anchor: middle;"></text></pattern></defs><rect id="svgbackgroundid" width="2190.916666666666" height="1230" fill="rgb(255,255,255)"></rect><rect id="SvgjsRect1009" width="2190.916666666666" height="1230" fill="url(#pattern_mark_0)"></rect><rect id="SvgjsRect1010" width="2190.916666666666" height="1230" fill="url(#pattern_mark_1)"></rect><g id="SvgjsG1011" transform="translate(219,675.5)"><path id="SvgjsPath1012" d="M 0 0L 395.108 0L 395.108 501L 0 501Z" stroke-dasharray="7.5,3" stroke="rgba(33,41,48,1)" stroke-width="1.5" fill-opacity="1" fill="#fadcdb"></path><g id="SvgjsG1013"><text id="SvgjsText1014" font-family="&quot;Microsoft YaHei&quot;, 微软雅黑, Arial" text-anchor="middle" font-size="13px" width="376px" fill="#323232" font-weight="400" align="middle" lineHeight="125%" anchor="middle" family="&quot;Microsoft YaHei&quot;, 微软雅黑, Arial" size="13px" weight="400" font-style="" opacity="1" y="239.875" transform="rotate(0)"></text></g></g><g id="SvgjsG1015" transform="translate(25,25)"><path id="SvgjsPath1016" d="M 0 0L 1113 0L 1113 1180L 0 1180Z" stroke="rgba(33,41,48,1)" stroke-width="1.5" fill="none"></path><path id="SvgjsPath1017" d="M 0 0L 1113 0L 1113 40L 0 40Z" stroke="rgba(33,41,48,1)" stroke-width="1.5" fill-opacity="1" fill="#ffffff"></path><g id="SvgjsG1018"><text id="SvgjsText1019" font-family="&quot;Microsoft YaHei&quot;, 微软雅黑, Arial" text-anchor="middle" font-size="16px" width="1093px" fill="#323232" font-weight="400" align="middle" lineHeight="125%" anchor="middle" family="&quot;Microsoft YaHei&quot;, 微软雅黑, Arial" size="16px" weight="400" font-style="" opacity="1" y="6" transform="rotate(0)"></text></g></g><g id="SvgjsG1020" transform="translate(25,65)"><path id="SvgjsPath1021" d="M 0 0L 189 0L 189 1140L 0 1140Z" stroke="rgba(33,41,48,1)" stroke-width="2" fill="none"></path><path id="SvgjsPath1022" d="M 0 0L 189 0L 189 30L 0 30Z" stroke="rgba(33,41,48,1)" stroke-width="2" fill-opacity="1" fill="#ffffff"></path><g id="SvgjsG1023"><text id="SvgjsText1024" font-family="&quot;Microsoft YaHei&quot;, 微软雅黑, Arial" text-anchor="middle" font-size="13px" width="169px" fill="#323232" font-weight="400" align="middle" lineHeight="125%" anchor="middle" family="&quot;Microsoft YaHei&quot;, 微软雅黑, Arial" size="13px" weight="400" font-style="" opacity="1" y="4.375" transform="rotate(0)"><tspan id="SvgjsTspan1025" dy="16.25" x="94.5"><tspan id="SvgjsTspan1026" style="">wangEditor</tspan></tspan></text></g></g><g id="SvgjsG1027" transform="translate(214,65)"><path id="SvgjsPath1028" d="M 0 0L 405 0L 405 1140L 0 1140Z" stroke="rgba(33,41,48,1)" stroke-width="2" fill="none"></path><path id="SvgjsPath1029" d="M 0 0L 405 0L 405 30L 0 30Z" stroke="rgba(33,41,48,1)" stroke-width="2" fill-opacity="1" fill="#ffffff"></path><g id="SvgjsG1030"><text id="SvgjsText1031" font-family="&quot;Microsoft YaHei&quot;, 微软雅黑, Arial" text-anchor="middle" font-size="13px" width="385px" fill="#323232" font-weight="400" align="middle" lineHeight="125%" anchor="middle" family="&quot;Microsoft YaHei&quot;, 微软雅黑, Arial" size="13px" weight="400" font-style="" opacity="1" y="4.375" transform="rotate(0)"><tspan id="SvgjsTspan1032" dy="16.25" x="202.5"><tspan id="SvgjsTspan1033" style="">withYjs</tspan></tspan></text></g></g><g id="SvgjsG1034" transform="translate(619,65)"><path id="SvgjsPath1035" d="M 0 0L 519 0L 519 1140L 0 1140Z" stroke="rgba(33,41,48,1)" stroke-width="2" fill="none"></path><path id="SvgjsPath1036" d="M 0 0L 519 0L 519 30L 0 30Z" stroke="rgba(33,41,48,1)" stroke-width="2" fill-opacity="1" fill="#ffffff"></path><g id="SvgjsG1037"><text id="SvgjsText1038" font-family="&quot;Microsoft YaHei&quot;, 微软雅黑, Arial" text-anchor="middle" font-size="13px" width="499px" fill="#323232" font-weight="400" align="middle" lineHeight="125%" anchor="middle" family="&quot;Microsoft YaHei&quot;, 微软雅黑, Arial" size="13px" weight="400" font-style="" opacity="1" y="4.375" transform="rotate(0)"><tspan id="SvgjsTspan1039" dy="16.25" x="259.5"><tspan id="SvgjsTspan1040" style="">withCursors</tspan></tspan></text></g></g><g id="SvgjsG1041" transform="translate(245.09994172494135,835.5786713286711)"><path id="SvgjsPath1042" d="M 0 0L 328.947 0L 328.947 133.998L 0 133.998Z" stroke-dasharray="7.5,3" stroke="rgba(33,41,48,1)" stroke-width="1.5" fill="none"></path><g id="SvgjsG1043"><text id="SvgjsText1044" font-family="&quot;Microsoft YaHei&quot;, 微软雅黑, Arial" text-anchor="middle" font-size="13px" width="309px" fill="#323232" font-weight="400" align="middle" lineHeight="125%" anchor="middle" family="&quot;Microsoft YaHei&quot;, 微软雅黑, Arial" size="13px" weight="400" font-style="" opacity="1" y="56.373999999999995" transform="rotate(0)"></text></g></g><g id="SvgjsG1045" transform="translate(309.57342657342633,837.1363636363628)"><path id="SvgjsPath1046" d="M 0 0L 200 0L 200 65.619L 0 65.619Z" stroke="none" fill="none"></path><g id="SvgjsG1047"><text id="SvgjsText1048" font-family="&quot;Microsoft YaHei&quot;, 微软雅黑, Arial" text-anchor="middle" font-size="40px" width="200px" fill="#e74f4c" font-weight="400" align="middle" lineHeight="125%" anchor="middle" family="&quot;Microsoft YaHei&quot;, 微软雅黑, Arial" size="40px" weight="400" font-style="" opacity="1" y="-2.1905" transform="rotate(0)"><tspan id="SvgjsTspan1049" dy="50" x="100"><tspan id="SvgjsTspan1050" style="">connect()</tspan></tspan></text></g></g><g id="SvgjsG1051" transform="translate(676.1666666666663,124.25160256410206)"><path id="SvgjsPath1052" d="M 0 0L 417.5 0L 417.5 242.343L 0 242.343Z" stroke-dasharray="7.5,3" stroke="rgba(33,41,48,1)" stroke-width="1.5" fill="none"></path><g id="SvgjsG1053"><text id="SvgjsText1054" font-family="&quot;Microsoft YaHei&quot;, 微软雅黑, Arial" text-anchor="middle" font-size="13px" width="398px" fill="#323232" font-weight="400" align="middle" lineHeight="125%" anchor="middle" family="&quot;Microsoft YaHei&quot;, 微软雅黑, Arial" size="13px" weight="400" font-style="" opacity="1" y="110.5465" transform="rotate(0)"></text></g></g><g id="SvgjsG1055" transform="translate(698.6089743589739,218.09775641025595)"><path id="SvgjsPath1056" d="M 0 4Q 0 0 4 0L 357.308 0Q 361.308 0 361.308 4L 361.308 36.75Q 361.308 40.75 357.308 40.75L 4 40.75Q 0 40.75 0 36.75Z" stroke="rgba(33,41,48,1)" stroke-width="1.5" fill-opacity="1" fill="#ffffff"></path><g id="SvgjsG1057"><text id="SvgjsText1058" font-family="&quot;Microsoft YaHei&quot;, 微软雅黑, Arial" text-anchor="middle" font-size="13px" width="342px" fill="#323232" font-weight="400" align="middle" lineHeight="125%" anchor="middle" family="&quot;Microsoft YaHei&quot;, 微软雅黑, Arial" size="13px" weight="400" font-style="" opacity="1" y="9.75" transform="rotate(0)"><tspan id="SvgjsTspan1059" dy="16.25" x="181"><tspan id="SvgjsTspan1060" style="">e.awareness.on('change', awarenessChangeListener)</tspan></tspan></text></g></g><g id="SvgjsG1061" transform="translate(698.6089743589739,307.25160256410294)"><path id="SvgjsPath1062" d="M 0 4Q 0 0 3.9999999999999996 0L 362.308 0Q 366.308 0 366.308 4L 366.308 36.75Q 366.308 40.75 362.308 40.75L 3.9999999999999996 40.75Q 0 40.75 0 36.75Z" stroke="rgba(33,41,48,1)" stroke-width="1.5" fill-opacity="1" fill="#ffffff"></path><g id="SvgjsG1063"><text id="SvgjsText1064" font-family="&quot;Microsoft YaHei&quot;, 微软雅黑, Arial" text-anchor="middle" font-size="13px" width="347px" fill="#323232" font-weight="400" align="middle" lineHeight="125%" anchor="middle" family="&quot;Microsoft YaHei&quot;, 微软雅黑, Arial" size="13px" weight="400" font-style="" opacity="1" y="9.75" transform="rotate(0)"><tspan id="SvgjsTspan1065" dy="16.25" x="183.5"><tspan id="SvgjsTspan1066" style="">e.onChange(): 增加CursorEditor.sendCursorPosition(e)</tspan></tspan></text></g></g><g id="SvgjsG1067" transform="translate(270.19842657342633,904.5370046620044)"><path id="SvgjsPath1068" d="M 0 4Q 0 0 4 0L 288.712 0Q 292.712 0 292.712 4L 292.712 47.04Q 292.712 51.04 288.712 51.04L 4 51.04Q 0 51.04 0 47.04Z" stroke="rgba(33,41,48,1)" stroke-width="1.5" fill-opacity="1" fill="#ffffff"></path><g id="SvgjsG1069"><text id="SvgjsText1070" font-family="&quot;Microsoft YaHei&quot;, 微软雅黑, Arial" text-anchor="middle" font-size="13px" width="273px" fill="#323232" font-weight="400" align="middle" lineHeight="125%" anchor="middle" family="&quot;Microsoft YaHei&quot;, 微软雅黑, Arial" size="13px" weight="400" font-style="" opacity="1" y="14.895" transform="rotate(0)"><tspan id="SvgjsTspan1071" dy="16.25" x="146.5"><tspan id="SvgjsTspan1072" style="">e.sharedRoot.observeDeep(handleYEvents);</tspan></tspan></text></g></g><g id="SvgjsG1073" transform="translate(784.9166666666663,135.61378205128239)"><path id="SvgjsPath1074" d="M 0 0L 200 0L 200 65.619L 0 65.619Z" stroke="none" fill="none"></path><g id="SvgjsG1075"><text id="SvgjsText1076" font-family="&quot;Microsoft YaHei&quot;, 微软雅黑, Arial" text-anchor="middle" font-size="40px" width="200px" fill="#e74f4c" font-weight="400" align="middle" lineHeight="125%" anchor="middle" family="&quot;Microsoft YaHei&quot;, 微软雅黑, Arial" size="40px" weight="400" font-style="" opacity="1" y="-2.1905" transform="rotate(0)"><tspan id="SvgjsTspan1077" dy="50" x="100"><tspan id="SvgjsTspan1078" style="">connect()</tspan></tspan></text></g></g><g id="SvgjsG1079" transform="translate(41.45920745920694,126.5592948717943)"><path id="SvgjsPath1080" d="M 0 4Q 0 0 4 0L 147.846 0Q 151.846 0 151.846 4L 151.846 36.846Q 151.846 40.846 147.846 40.846L 4 40.846Q 0 40.846 0 36.846Z" stroke="rgba(33,41,48,1)" stroke-width="1.5" fill-opacity="1" fill="#ffffff"></path><g id="SvgjsG1081"><text id="SvgjsText1082" font-family="&quot;Microsoft YaHei&quot;, 微软雅黑, Arial" text-anchor="middle" font-size="13px" width="132px" fill="#323232" font-weight="400" align="middle" lineHeight="125%" anchor="middle" family="&quot;Microsoft YaHei&quot;, 微软雅黑, Arial" size="13px" weight="400" font-style="" opacity="1" y="9.797999999999998" transform="rotate(0)"><tspan id="SvgjsTspan1083" dy="16.25" x="76"><tspan id="SvgjsTspan1084" style="">改变内容触发apply()</tspan></tspan></text></g></g><g id="SvgjsG1085" transform="translate(288.63228438228407,124.25160256410206)"><path id="SvgjsPath1086" d="M 0 3.9999999999999996Q 0 0 3.9999999999999996 0L 223.231 0Q 227.231 0 227.231 3.9999999999999996L 227.231 41.462Q 227.231 45.462 223.231 45.462L 3.9999999999999996 45.462Q 0 45.462 0 41.462Z" stroke="rgba(33,41,48,1)" stroke-width="1.5" fill-opacity="1" fill="#ffffff"></path><g id="SvgjsG1087"><text id="SvgjsText1088" font-family="&quot;Microsoft YaHei&quot;, 微软雅黑, Arial" text-anchor="start" font-size="13px" width="208px" fill="#323232" font-weight="400" align="middle" lineHeight="125%" anchor="start" family="&quot;Microsoft YaHei&quot;, 微软雅黑, Arial" size="13px" weight="400" font-style="" opacity="1" y="12.106000000000002" transform="rotate(0)"><tspan id="SvgjsTspan1089" dy="16.25" x="10"><tspan id="SvgjsTspan1090" style="">YjsEditor.storeLocalChange(e, op)</tspan></tspan></text></g></g><g id="SvgjsG1091"><path id="SvgjsPath1092" d="M194.05520745920694 146.9822948717943L240.9687459207455 146.9822948717943L240.9687459207455 146.98260256410202L285.932284382284 146.98260256410202" stroke-dasharray="7.5,3,1.5,3" stroke="#323232" stroke-width="1.5" fill="none" marker-end="url(#SvgjsMarker1093)"></path></g><g id="SvgjsG1095" transform="translate(41.45920745920694,208.46714743589683)"><path id="SvgjsPath1096" d="M 0 4Q 0 0 4 0L 147.846 0Q 151.846 0 151.846 4L 151.846 36.846Q 151.846 40.846 147.846 40.846L 4 40.846Q 0 40.846 0 36.846Z" stroke="rgba(33,41,48,1)" stroke-width="1.5" fill-opacity="1" fill="#e74f4c"></path><g id="SvgjsG1097"><text id="SvgjsText1098" font-family="&quot;Microsoft YaHei&quot;, 微软雅黑, Arial" text-anchor="middle" font-size="13px" width="132px" fill="#323232" font-weight="400" align="middle" lineHeight="125%" anchor="middle" family="&quot;Microsoft YaHei&quot;, 微软雅黑, Arial" size="13px" weight="400" font-style="" opacity="1" y="9.797999999999998" transform="rotate(0)"><tspan id="SvgjsTspan1099" dy="16.25" x="76"><tspan id="SvgjsTspan1100" style="">onChange()方法</tspan></tspan></text></g></g><g id="SvgjsG1101"><path id="SvgjsPath1102" d="M194.05520745920694 228.89014743589684L237.3994350233097 228.89014743589684L237.3994350233097 267.65665064102535L278.7936625874124 267.65665064102535" stroke="#323232" stroke-width="1.5" fill="none" marker-end="url(#SvgjsMarker1103)"></path></g><g id="SvgjsG1105" transform="translate(281.4936625874125,249.3133012820507)"><path id="SvgjsPath1106" d="M 0 4Q 0 0 4 0L 261.008 0Q 265.008 0 265.008 4L 265.008 32.687Q 265.008 36.687 261.008 36.687L 4 36.687Q 0 36.687 0 32.687Z" stroke="rgba(33,41,48,1)" stroke-width="1.5" fill-opacity="1" fill="#ffffff"></path><g id="SvgjsG1107"><text id="SvgjsText1108" font-family="&quot;Microsoft YaHei&quot;, 微软雅黑, Arial" text-anchor="middle" font-size="13px" width="246px" fill="#323232" font-weight="400" align="middle" lineHeight="125%" anchor="middle" family="&quot;Microsoft YaHei&quot;, 微软雅黑, Arial" size="13px" weight="400" font-style="" opacity="1" y="-0.7815000000000012" transform="rotate(0)"><tspan id="SvgjsTspan1109" dy="16.25" x="133"><tspan id="SvgjsTspan1110" style="">e.onChange(): </tspan></tspan><tspan id="SvgjsTspan1111" dy="16.25" x="133"><tspan id="SvgjsTspan1112" style="">增加YjsEditor.flushLocalChanges(e)</tspan></tspan></text></g></g><g id="SvgjsG1113"><path id="SvgjsPath1114" d="M194.05520745920694 228.89014743589684L417.8320909090903 228.89014743589684L417.8320909090903 228.89014743589684L642.3589743589739 228.89014743589684L642.3589743589739 327.62660256410294L695.9089743589739 327.62660256410294" stroke="#323232" stroke-width="1.5" fill="none" marker-end="url(#SvgjsMarker1115)"></path></g><g id="SvgjsG1117" transform="translate(233.84382284382264,316.48237179487194)"><path id="SvgjsPath1118" d="M 0 4Q 0 0 4 0L 356.308 0Q 360.308 0 360.308 4L 360.308 113.769Q 360.308 117.769 356.308 117.769L 4 117.769Q 0 117.769 0 113.769Z" stroke="rgba(33,41,48,1)" stroke-width="1.5" fill-opacity="1" fill="#ffffff"></path><g id="SvgjsG1119"><text id="SvgjsText1120" font-family="&quot;Microsoft YaHei&quot;, 微软雅黑, Arial" text-anchor="start" font-size="13px" width="341px" fill="#323232" font-weight="400" align="middle" lineHeight="125%" anchor="start" family="&quot;Microsoft YaHei&quot;, 微软雅黑, Arial" size="13px" weight="400" font-style="" opacity="1" y="7.259500000000003" transform="rotate(0)"><tspan id="SvgjsTspan1121" dy="16.25" x="10"><tspan id="SvgjsTspan1122" style="fill: rgb(231, 79, 76);font-weight: bold;">调用applySlateOp(sharedRoot, slateRoot, op)根据</tspan></tspan><tspan id="SvgjsTspan1123" dy="16.25" x="10"><tspan id="SvgjsTspan1124" style="fill: rgb(231, 79, 76);font-weight: bold;">op.type调用对应的Yjs的API：</tspan></tspan><tspan id="SvgjsTspan1125" dy="16.25" x="10"><tspan id="SvgjsTspan1126" style="">1. 分为nodo和text两种类型的方法，比如</tspan></tspan><tspan id="SvgjsTspan1127" dy="16.25" x="10"><tspan id="SvgjsTspan1128" style="">packages/yjs/src/applyToYjs/text封装了insert_text和</tspan></tspan><tspan id="SvgjsTspan1129" dy="16.25" x="10"><tspan id="SvgjsTspan1130" style="">remove_text两种方法</tspan></tspan><tspan id="SvgjsTspan1131" dy="16.25" x="10"><tspan id="SvgjsTspan1132" style="">2. 封装的方法就是使用Y.XmlText的API进行操作</tspan></tspan></text></g></g><g id="SvgjsG1133"><path id="SvgjsPath1134" d="M413.9977818390623 286.75L413.9977818390623 301.24118589743597L412.3543205128203 301.24118589743597L412.3543205128203 313.78237179487195" stroke="#323232" stroke-width="1.5" fill="none" marker-end="url(#SvgjsMarker1135)"></path></g><g id="SvgjsG1137" transform="translate(630.2255608974358,490.2499999999998)"><path id="SvgjsPath1138" d="M 0 4Q 0 0 4 0L 494.075 0Q 498.075 0 498.075 4L 498.075 59Q 498.075 63 494.075 63L 4 63Q 0 63 0 59Z" stroke="rgba(33,41,48,1)" stroke-width="1.5" fill-opacity="1" fill="#ffffff"></path><g id="SvgjsG1139"><text id="SvgjsText1140" font-family="&quot;Microsoft YaHei&quot;, 微软雅黑, Arial" text-anchor="start" font-size="13px" width="479px" fill="#323232" font-weight="400" align="middle" lineHeight="125%" anchor="start" family="&quot;Microsoft YaHei&quot;, 微软雅黑, Arial" size="13px" weight="400" font-style="" opacity="1" y="12.375" transform="rotate(0)"><tspan id="SvgjsTspan1141" dy="16.25" x="10"><tspan id="SvgjsTspan1142" style="">1.const {anchor, focus}=slateRangeToRelativeRange(e.sharedRoot, e, range)</tspan></tspan><tspan id="SvgjsTspan1143" dy="16.25" x="10"><tspan id="SvgjsTspan1144" style="">2.e.awareness.setLocalStateField(e.selectionStateField, { anchor, focus })</tspan></tspan></text></g></g><g id="SvgjsG1145"><path id="SvgjsPath1146" d="M881.7629764879925 348.75160256410294L881.7629764879925 419.1258012820514L881.7116816300554 419.1258012820514L881.7116816300554 487.5499999999997" stroke="#323232" stroke-width="1.5" fill="none" marker-end="url(#SvgjsMarker1147)"></path></g><g id="SvgjsG1149" transform="translate(1413.1378205128203,141.6266025641018)"><path id="SvgjsPath1150" d="M 0 0L 540.308 0L 556.308 16L 556.308 174.527L 0 174.527L 0 0Z" stroke="none" fill-opacity="1" fill="#fadcdb"></path><path id="SvgjsPath1151" d="M 540.308 0L 540.308 16L 556.308 16Z" stroke="none" fill-opacity="1" fill="#e4d089"></path><path id="SvgjsPath1152" d="M 0 0L 540.308 0L 556.308 16L 556.308 174.527L 0 174.527L 0 0Z" stroke="none" fill="none"></path><g id="SvgjsG1153"><text id="SvgjsText1154" font-family="&quot;Microsoft YaHei&quot;, 微软雅黑, Arial" text-anchor="start" font-size="13px" width="537px" fill="#323232" font-weight="400" align="middle" lineHeight="125%" anchor="start" family="&quot;Microsoft YaHei&quot;, 微软雅黑, Arial" size="13px" weight="400" font-style="" opacity="1" y="11.638499999999993" transform="rotate(0)"><tspan id="SvgjsTspan1155" dy="16.25" x="10"><tspan id="SvgjsTspan1156" style="">const event = {</tspan></tspan><tspan id="SvgjsTspan1157" dy="16.25" x="10"><tspan id="SvgjsTspan1158" style="">    added: yEvent.added.filter(id =&gt; id !== localId),</tspan></tspan><tspan id="SvgjsTspan1159" dy="16.25" x="10"><tspan id="SvgjsTspan1160" style="">    removed: yEvent.removed.filter(id =&gt; id !== localId),</tspan></tspan><tspan id="SvgjsTspan1161" dy="16.25" x="10"><tspan id="SvgjsTspan1162" style="">    updated: yEvent.updated.filter(id =&gt; id !== localId),</tspan></tspan><tspan id="SvgjsTspan1163" dy="16.25" x="10"><tspan id="SvgjsTspan1164" style="">  }</tspan></tspan><tspan id="SvgjsTspan1165" dy="32.5" x="10"><tspan id="SvgjsTspan1166" style="">  if (event.added.length &gt; 0 || event.removed.length &gt; 0 || event.updated.length &gt; 0) {</tspan></tspan><tspan id="SvgjsTspan1167" dy="16.25" x="10"><tspan id="SvgjsTspan1168" style="">    listeners.forEach(listener =&gt; listener(event))</tspan></tspan><tspan id="SvgjsTspan1169" dy="16.25" x="10"><tspan id="SvgjsTspan1170" style="">  }</tspan></tspan></text></g></g><g id="SvgjsG1171"><path id="SvgjsPath1172" d="M1129.0505608974354 521.7499999999998L1182.166666666666 521.7499999999998L1182.166666666666 229.50000000000006" stroke-dasharray="7.5,3,1.5,3" stroke="#323232" stroke-width="1.5" fill="none" marker-end="url(#SvgjsMarker1173)"></path></g><g id="SvgjsG1175"><path id="SvgjsPath1176" d="M1060.166666666666 229.50000000000006L1236.2772435897432 229.50000000000006L1236.2772435897432 228.89022435897374L1411.1878205128205 228.89022435897374" stroke-dasharray="1.5,2.25" stroke="#323232" stroke-width="1.5" fill="none" marker-end="url(#SvgjsMarker1177)"></path></g><g id="SvgjsG1179" transform="translate(1253.416666666666,460.4632867132864)"><path id="SvgjsPath1180" d="M 0 4Q 0 0 4 0L 227 0Q 231 0 231 4L 231 61.614999999999995Q 231 65.615 227 65.615L 4 65.615Q 0 65.615 0 61.614999999999995Z" stroke="rgba(33,41,48,1)" stroke-width="1.5" fill-opacity="1" fill="#fadcdb"></path><g id="SvgjsG1181"><text id="SvgjsText1182" font-family="&quot;Microsoft YaHei&quot;, 微软雅黑, Arial" text-anchor="middle" font-size="13px" width="211px" fill="#323232" font-weight="400" align="middle" lineHeight="125%" anchor="middle" family="&quot;Microsoft YaHei&quot;, 微软雅黑, Arial" size="13px" weight="400" font-style="" opacity="1" y="13.682499999999997" transform="rotate(0)"><tspan id="SvgjsTspan1183" dy="16.25" x="115.5"><tspan id="SvgjsTspan1184" style="">CursorEditor.on(editor, "change", </tspan></tspan><tspan id="SvgjsTspan1185" dy="16.25" x="115.5"><tspan id="SvgjsTspan1186" style="">changeHandler);</tspan></tspan></text></g></g><g id="SvgjsG1187"><path id="SvgjsPath1188" d="M1368.9170303030296 526.8282867132862L1368.9170303030296 588.4735839160833L1368.9170303030296 588.4735839160833L1368.9170303030296 648.1688811188803" stroke="#323232" stroke-width="1.5" fill="none" marker-end="url(#SvgjsMarker1189)"></path></g><g id="SvgjsG1191" transform="translate(1273.05303030303,650.8688811188804)"><path id="SvgjsPath1192" d="M 0 0L 191.727 0L 191.727 53.364L 0 53.364Z" stroke="rgba(33,41,48,1)" stroke-width="1.5" fill-opacity="1" fill="#fadcdb"></path><g id="SvgjsG1193"><text id="SvgjsText1194" font-family="&quot;Microsoft YaHei&quot;, 微软雅黑, Arial" text-anchor="middle" font-size="13px" width="172px" fill="#323232" font-weight="400" align="middle" lineHeight="125%" anchor="middle" family="&quot;Microsoft YaHei&quot;, 微软雅黑, Arial" size="13px" weight="400" font-style="" opacity="1" y="16.057" transform="rotate(0)"><tspan id="SvgjsTspan1195" dy="16.25" x="96"><tspan id="SvgjsTspan1196" style="">得到cursors</tspan></tspan></text></g></g><g id="SvgjsG1197" transform="translate(1854.3205128205127,593.4545454545446)"><path id="SvgjsPath1198" d="M 0 4Q 0 0 4 0L 264.692 0Q 268.692 0 268.692 4L 268.692 44.192Q 268.692 48.192 264.692 48.192L 4 48.192Q 0 48.192 0 44.192Z" stroke="rgba(33,41,48,1)" stroke-width="1.5" fill-opacity="1" fill="#ffffff"></path><g id="SvgjsG1199"><text id="SvgjsText1200" font-family="&quot;Microsoft YaHei&quot;, 微软雅黑, Arial" text-anchor="start" font-size="13px" width="249px" fill="#323232" font-weight="400" align="middle" lineHeight="125%" anchor="start" family="&quot;Microsoft YaHei&quot;, 微软雅黑, Arial" size="13px" weight="400" font-style="" opacity="1" y="13.471" transform="rotate(0)"><tspan id="SvgjsTspan1201" dy="16.25" x="10"><tspan id="SvgjsTspan1202" style="">CursorEditor.cursorState(editor, clientId)</tspan></tspan></text></g></g><g id="SvgjsG1203"><path id="SvgjsPath1204" d="M1853.5705128205127 617.5505454545446L1659.5502715617704 617.5505454545446L1659.5502715617704 677.5508811188804L1467.4800303030297 677.5508811188804" stroke-dasharray="7.5,3" stroke="#323232" stroke-width="1.5" fill="none" marker-end="url(#SvgjsMarker1205)"></path><rect id="SvgjsRect1207" width="180" height="18" x="1569.5502715617704" y="659.5508811188804" fill="#ffffff"></rect><text id="SvgjsText1208" font-family="&quot;Microsoft YaHei&quot;, 微软雅黑, Arial" text-anchor="middle" font-size="13px" width="180px" fill="#323232" font-weight="400" align="top" lineHeight="16px" anchor="middle" family="&quot;Microsoft YaHei&quot;, 微软雅黑, Arial" size="13px" weight="400" font-style="" opacity="1" y="656.9258811188804" transform="rotate(0)"><tspan id="SvgjsTspan1209" dy="16.25" x="1659.5502715617704"><tspan id="SvgjsTspan1210" style="">得到cursor和relativeSelection</tspan></tspan></text></g><g id="SvgjsG1211" transform="translate(1248.734848484848,735.8688811188806)"><path id="SvgjsPath1212" d="M 0 0L 240.364 0L 240.364 63.71L 0 63.71Z" stroke="rgba(33,41,48,1)" stroke-width="1.5" fill-opacity="1" fill="#fadcdb"></path><g id="SvgjsG1213"><text id="SvgjsText1214" font-family="&quot;Microsoft YaHei&quot;, 微软雅黑, Arial" text-anchor="middle" font-size="13px" width="221px" fill="#323232" font-weight="400" align="middle" lineHeight="125%" anchor="middle" family="&quot;Microsoft YaHei&quot;, 微软雅黑, Arial" size="13px" weight="400" font-style="" opacity="1" y="12.73" transform="rotate(0)"><tspan id="SvgjsTspan1215" dy="16.25" x="120.5"><tspan id="SvgjsTspan1216" style="">通过relativeSelection + </tspan></tspan><tspan id="SvgjsTspan1217" dy="16.25" x="120.5"><tspan id="SvgjsTspan1218" style="">getCursorRange()得到选中范围数据</tspan></tspan></text></g></g><g id="SvgjsG1219"><path id="SvgjsPath1220" d="M1368.9170303030296 704.9828811188806L1368.9170303030296 720.0508811188806L1368.9170303030296 720.0508811188806L1368.9170303030296 733.1688811188806" stroke="#323232" stroke-width="1.5" fill="none" marker-end="url(#SvgjsMarker1221)"></path></g><g id="SvgjsG1223" transform="translate(1854.3205128205127,718.627622377622)"><path id="SvgjsPath1224" d="M 0 4Q 0 0 4 0L 264.692 0Q 268.692 0 268.692 4L 268.692 44.192Q 268.692 48.192 264.692 48.192L 4 48.192Q 0 48.192 0 44.192Z" stroke="rgba(33,41,48,1)" stroke-width="1.5" fill-opacity="1" fill="#ffffff"></path><g id="SvgjsG1225"><text id="SvgjsText1226" font-family="&quot;Microsoft YaHei&quot;, 微软雅黑, Arial" text-anchor="middle" font-size="13px" width="249px" fill="#323232" font-weight="400" align="middle" lineHeight="125%" anchor="middle" family="&quot;Microsoft YaHei&quot;, 微软雅黑, Arial" size="13px" weight="400" font-style="" opacity="1" y="13.471" transform="rotate(0)"><tspan id="SvgjsTspan1227" dy="16.25" x="134.5"><tspan id="SvgjsTspan1228" style="">relativeRangeToSlateRange()</tspan></tspan></text></g></g><g id="SvgjsG1229"><path id="SvgjsPath1230" d="M1853.5705128205127 742.723622377622L1671.7096806526797 742.723622377622L1671.7096806526797 767.723622377622L1491.7988484848483 767.723622377622" stroke-dasharray="7.5,3" stroke="#323232" stroke-width="1.5" fill="none" marker-end="url(#SvgjsMarker1231)"></path><rect id="SvgjsRect1233" width="150" height="18" x="1572.066604511136" y="758.7236223776218" fill="#ffffff"></rect><text id="SvgjsText1234" font-family="&quot;Microsoft YaHei&quot;, 微软雅黑, Arial" text-anchor="middle" font-size="13px" width="150px" fill="#323232" font-weight="400" align="top" lineHeight="16px" anchor="middle" family="&quot;Microsoft YaHei&quot;, 微软雅黑, Arial" size="13px" weight="400" font-style="" opacity="1" y="756.0986223776218" transform="rotate(0)"><tspan id="SvgjsTspan1235" dy="16.25" x="1647.066604511136"><tspan id="SvgjsTspan1236" style="">Yjs的数据转化为slate数据</tspan></tspan></text></g><g id="SvgjsG1237" transform="translate(1216.666666666666,434.25160256410277)"><path id="SvgjsPath1238" d="M 0 0L 949.25 0L 949.25 420.75L 0 420.75Z" stroke-dasharray="7.5,3" stroke="rgba(33,41,48,1)" stroke-width="1.5" fill="none"></path><g id="SvgjsG1239"><text id="SvgjsText1240" font-family="&quot;Microsoft YaHei&quot;, 微软雅黑, Arial" text-anchor="middle" font-size="13px" width="930px" fill="#323232" font-weight="400" align="middle" lineHeight="125%" anchor="middle" family="&quot;Microsoft YaHei&quot;, 微软雅黑, Arial" size="13px" weight="400" font-style="" opacity="1" y="199.75" transform="rotate(0)"></text></g></g><g id="SvgjsG1241"><path id="SvgjsPath1242" d="M1691.2918205128199 316.15360256410173L1691.2918205128199 375.2026025641022L1691.291666666666 375.2026025641022L1691.291666666666 431.5516025641027" stroke="#323232" stroke-width="1.5" fill="none" marker-end="url(#SvgjsMarker1243)"></path></g><g id="SvgjsG1245"><path id="SvgjsPath1246" d="M117.38220745920671 168.1552948717943L117.38220745920671 187.93622115384557L117.38220745920671 187.93622115384557L117.38220745920671 205.76714743589685" stroke="#323232" stroke-width="1.5" fill="none" marker-end="url(#SvgjsMarker1247)"></path></g><g id="SvgjsG1249" transform="translate(271.9976689976688,504.25)"><path id="SvgjsPath1250" d="M 0 4Q 0 0 4 0L 280 0Q 284 0 284 4L 284 54.25Q 284 58.25 280 58.25L 4 58.25Q 0 58.25 0 54.25Z" stroke="rgba(33,41,48,1)" stroke-width="1.5" fill-opacity="1" fill="#ffffff"></path><g id="SvgjsG1251"><text id="SvgjsText1252" font-family="&quot;Microsoft YaHei&quot;, 微软雅黑, Arial" text-anchor="middle" font-size="13px" width="264px" fill="#323232" font-weight="400" align="middle" lineHeight="125%" anchor="middle" family="&quot;Microsoft YaHei&quot;, 微软雅黑, Arial" size="13px" weight="400" font-style="" opacity="1" y="10" transform="rotate(0)"><tspan id="SvgjsTspan1253" dy="16.25" x="142"><tspan id="SvgjsTspan1254" style="">任何对 Y.Doc 中共享类型的修改（在事务中）</tspan></tspan><tspan id="SvgjsTspan1255" dy="16.25" x="142"><tspan id="SvgjsTspan1256" style="">都会生成 update</tspan></tspan></text></g></g><g id="SvgjsG1257"><path id="SvgjsPath1258" d="M413.99782284382263 435.00137179487194L413.99782284382263 469.2506858974359L413.9976689976688 469.2506858974359L413.9976689976688 501.54999999999995" stroke="#323232" stroke-width="1.5" fill="none" marker-end="url(#SvgjsMarker1259)"></path></g><g id="SvgjsG1261" transform="translate(271.9976689976688,592.6188811188804)"><path id="SvgjsPath1262" d="M 0 4Q 0 0 4 0L 280 0Q 284 0 284 4L 284 54.25Q 284 58.25 280 58.25L 4 58.25Q 0 58.25 0 54.25Z" stroke="rgba(33,41,48,1)" stroke-width="1.5" fill-opacity="1" fill="#ffffff"></path><g id="SvgjsG1263"><text id="SvgjsText1264" font-family="&quot;Microsoft YaHei&quot;, 微软雅黑, Arial" text-anchor="middle" font-size="13px" width="264px" fill="#323232" font-weight="400" align="middle" lineHeight="125%" anchor="middle" family="&quot;Microsoft YaHei&quot;, 微软雅黑, Arial" size="13px" weight="400" font-style="" opacity="1" y="18.5" transform="rotate(0)"><tspan id="SvgjsTspan1265" dy="16.25" x="142"><tspan id="SvgjsTspan1266" style="">Provider (如 WebSocket) 广播 update</tspan></tspan></text></g></g><g id="SvgjsG1267" transform="translate(234.70425407925381,704.2325174825168)"><path id="SvgjsPath1268" d="M 0 4Q 0 0 3.9999999999999996 0L 354.587 0Q 358.587 0 358.587 4L 358.587 66.267Q 358.587 70.267 354.587 70.267L 3.9999999999999996 70.267Q 0 70.267 0 66.267Z" stroke="rgba(33,41,48,1)" stroke-width="1.5" fill-opacity="1" fill="#ffffff"></path><g id="SvgjsG1269"><text id="SvgjsText1270" font-family="&quot;Microsoft YaHei&quot;, 微软雅黑, Arial" text-anchor="start" font-size="12px" width="339px" fill="#323232" font-weight="400" align="middle" lineHeight="125%" anchor="start" family="&quot;Microsoft YaHei&quot;, 微软雅黑, Arial" size="12px" weight="400" font-style="" opacity="1" y="2.633499999999998" transform="rotate(0)"><tspan id="SvgjsTspan1271" dy="15" x="10"><tspan id="SvgjsTspan1272" style="">其它客户端：</tspan></tspan><tspan id="SvgjsTspan1273" dy="15" x="10"><tspan id="SvgjsTspan1274" style="">1. 本地 Provider 接收 update-&gt;Y.applyUpdate(doc, update)</tspan></tspan><tspan id="SvgjsTspan1275" dy="15" x="10"><tspan id="SvgjsTspan1276" style="">2. 本地 Y.Doc 的 sharedRoot 被修改（事务提交）</tspan></tspan><tspan id="SvgjsTspan1277" dy="15" x="10"><tspan id="SvgjsTspan1278" style="">3. Yjs 触发 sharedRoot.observeDeep(handleYEvents)</tspan></tspan></text></g></g><g id="SvgjsG1279"><path id="SvgjsPath1280" d="M413.9976689976688 563.25L413.9976689976688 577.5594405594402L413.9976689976688 577.5594405594402L413.9976689976688 589.9188811188803" stroke="#323232" stroke-width="1.5" fill="none" marker-end="url(#SvgjsMarker1281)"></path></g><g id="SvgjsG1283"><path id="SvgjsPath1284" d="M413.9976689976688 651.6188811188804L413.9976689976688 677.5506993006986L413.997215193634 677.5506993006986L413.997215193634 701.5325174825167" stroke="#323232" stroke-width="1.5" fill="none" marker-end="url(#SvgjsMarker1285)"></path></g><g id="SvgjsG1287"><path id="SvgjsPath1288" d="M413.9972540792537 775.2495174825167L413.9972540792537 804.4995174825167L238.151515151515 804.4995174825167L238.151515151515 930.0570046620044L267.4984265734263 930.0570046620044" stroke="#323232" stroke-width="1.5" fill="none" marker-end="url(#SvgjsMarker1289)"></path></g><g id="SvgjsG1291" transform="translate(225.05419580419561,1044.4809149184139)"><path id="SvgjsPath1292" d="M 0 4Q 0 0 4 0L 379 0Q 383 0 383 4L 383 105.019Q 383 109.019 379 109.019L 4 109.019Q 0 109.019 0 105.019Z" stroke="rgba(33,41,48,1)" stroke-width="1.5" fill-opacity="1" fill="#ffffff"></path><g id="SvgjsG1293"><text id="SvgjsText1294" font-family="&quot;Microsoft YaHei&quot;, 微软雅黑, Arial" text-anchor="start" font-size="13px" width="363px" fill="#323232" font-weight="400" align="middle" lineHeight="125%" anchor="start" family="&quot;Microsoft YaHei&quot;, 微软雅黑, Arial" size="13px" weight="400" font-style="" opacity="1" y="2.8845000000000027" transform="rotate(0)"><tspan id="SvgjsTspan1295" dy="16.25" x="10"><tspan id="SvgjsTspan1296" style="">1.阻止origin 非本地，保证不会再次同步回 Yjs </tspan></tspan><tspan id="SvgjsTspan1297" dy="16.25" x="10"><tspan id="SvgjsTspan1298" style="">2.applyRemoteEvents → flushLocalChanges（先提交本地修</tspan></tspan><tspan id="SvgjsTspan1299" dy="16.25" x="10"><tspan id="SvgjsTspan1300" style="">改更新Yjs数据）+ applyYjsEvents: 将 Yjs 事件转为 Slate </tspan></tspan><tspan id="SvgjsTspan1301" dy="16.25" x="10"><tspan id="SvgjsTspan1302" style="">Operation，然后触发editor.apply(op) → 更新 editor编辑器</tspan></tspan><tspan id="SvgjsTspan1303" dy="16.25" x="10"><tspan id="SvgjsTspan1304" style="">内容数据</tspan></tspan><tspan id="SvgjsTspan1305" dy="16.25" x="10"><tspan id="SvgjsTspan1306" style="">注：远端数据是先更新Y.js-&gt;slate编辑器的内容</tspan></tspan></text></g></g><g id="SvgjsG1307"><path id="SvgjsPath1308" d="M416.5544265734263 956.3270046620044L416.5544265734263 1000.0289597902092L416.5541958041956 1000.0289597902092L416.5541958041956 1041.7809149184138" stroke="#323232" stroke-width="1.5" fill="none" marker-end="url(#SvgjsMarker1309)"></path></g><g id="SvgjsG1311"></g><rect id="SvgjsRect1312" width="2190.916666666666" height="1230" fill="url(#wpspattern_mark_0)"></rect></svg>